<svg width="21" height="13" viewBox="0 0 21 13" fill="none" xmlns="http://www.w3.org/2000/svg">
<path fill-rule="evenodd" clip-rule="evenodd" d="M20.5183 0.829483C20.6636 0.351743 20.5183 0 19.8227 0H17.5259C16.9414 0 16.6719 0.303619 16.5258 0.638737C16.5258 0.638737 15.3577 3.43518 13.7031 5.25164C13.1676 5.77838 12.9244 5.9455 12.6321 5.9455C12.486 5.9455 12.2664 5.77838 12.2664 5.29976V0.829483C12.2664 0.255495 12.1054 0 11.6189 0H8.00696C7.64209 0 7.42247 0.265994 7.42247 0.518864C7.42247 1.06223 8.2502 1.18823 8.33508 2.71769V6.04087C8.33508 6.76973 8.2012 6.90186 7.90896 6.90186C7.13023 6.90186 5.23589 4.09229 4.11154 0.877606C3.89367 0.251995 3.67317 0 3.08606 0H0.787483C0.131247 0 0 0.303619 0 0.638737C0 1.23547 0.778734 4.19991 3.6268 8.12071C5.52551 10.7981 8.19858 12.2497 10.6337 12.2497C12.094 12.2497 12.2742 11.9278 12.2742 11.3721V9.3483C12.2742 8.70344 12.4125 8.57482 12.8754 8.57482C13.2166 8.57482 13.8002 8.74282 15.1634 10.0334C16.7209 11.5638 16.9773 12.2497 17.854 12.2497H20.1508C20.8071 12.2497 21.1361 11.9277 20.9471 11.2908C20.7388 10.6573 19.9951 9.73767 19.009 8.64657C18.4735 8.02533 17.6703 7.35597 17.4261 7.02085C17.0858 6.59124 17.1829 6.39962 17.4261 6.01725C17.4261 6.01725 20.2261 2.14458 20.5174 0.829483H20.5183Z" fill="#374151"/>
</svg>
