<svg width="12" height="11" viewBox="0 0 12 11" fill="none" xmlns="http://www.w3.org/2000/svg">
<path d="M0.984375 5.01455C0.597747 5.01455 0.284322 5.32797 0.284322 5.7146C0.284322 6.10123 0.597747 6.41465 0.984375 6.41465V5.01455ZM11.2352 6.20961C11.5086 5.93622 11.5086 5.49298 11.2352 5.21959L6.78006 0.76448C6.50668 0.491093 6.06343 0.491093 5.79004 0.76448C5.51665 1.03787 5.51665 1.48112 5.79004 1.7545L9.75014 5.7146L5.79004 9.6747C5.51665 9.94808 5.51665 10.3913 5.79004 10.6647C6.06343 10.9381 6.50668 10.9381 6.78006 10.6647L11.2352 6.20961ZM0.984375 6.41465H10.7402V5.01455H0.984375V6.41465Z" fill="black"/>
</svg>
