<svg width="112" height="25" viewBox="0 0 112 25" fill="none" xmlns="http://www.w3.org/2000/svg">
<path fill-rule="evenodd" clip-rule="evenodd" d="M16.176 23.8206L14.1701 19.2619L14.8522 17.7044L16.6575 21.8128L24.5747 3.73494H19.1542L10.3467 23.8206H9.38177L0 2.49509C1.53248 2.49509 3.06348 2.49628 4.59656 2.49628L5.10875 3.73536H1.91965L9.86328 21.8128L12.5717 15.6285C10.6458 11.2509 8.71215 6.87606 6.79408 2.49507H26.4921L17.1408 23.8206H16.1761H16.176ZM109.043 8.61274H105.877V17.1097V17.424H105.56H105.102H104.786V17.1097V8.61274H101.619H101.303V8.2985V7.88279V7.56855H101.619H109.043H109.36V7.88279V8.2985V8.61274H109.043ZM109.485 0.336239C108.889 0.336239 108.381 0.54725 107.958 0.968115C107.539 1.38782 107.328 1.89331 107.328 2.48695C107.328 3.08405 107.537 3.59419 107.954 4.01506C108.375 4.43592 108.884 4.64693 109.485 4.64693C110.085 4.64693 110.595 4.43592 111.015 4.01506C111.435 3.59419 111.645 3.08405 111.645 2.48695C111.645 1.89334 111.435 1.38782 111.015 0.968115C110.592 0.54725 110.083 0.336239 109.485 0.336239H109.485ZM112 2.48695C112 3.17796 111.755 3.76694 111.264 4.25622C110.775 4.74549 110.181 4.99011 109.485 4.99011C108.789 4.99011 108.197 4.74546 107.709 4.25622C107.223 3.76925 106.98 3.17911 106.98 2.48695C106.98 1.80057 107.224 1.21392 107.715 0.72696C108.203 0.242337 108.793 0 109.485 0C110.181 0 110.775 0.242312 111.264 0.72696C111.755 1.21158 112 1.79825 112 2.48695H112ZM110.143 1.94319C110.143 1.74377 110.081 1.61042 109.959 1.54204C109.836 1.47479 109.641 1.44002 109.372 1.44002H108.958V2.43247H109.396C109.602 2.43247 109.756 2.4116 109.858 2.37102C110.048 2.29681 110.143 2.1542 110.143 1.94319H110.143ZM109.437 1.11074C109.779 1.11074 110.03 1.14435 110.19 1.20929C110.475 1.32756 110.618 1.55828 110.618 1.90262C110.618 2.14726 110.528 2.32697 110.347 2.4429C110.251 2.50319 110.118 2.54842 109.947 2.57507C110.164 2.60868 110.322 2.69796 110.423 2.8429C110.523 2.98784 110.574 3.13044 110.574 3.26841V3.46783C110.574 3.53162 110.576 3.6 110.581 3.67191C110.584 3.74494 110.592 3.79248 110.604 3.81451L110.621 3.84928H110.166C110.164 3.84 110.161 3.83072 110.159 3.82145C110.157 3.81217 110.154 3.80289 110.152 3.7913L110.143 3.70318V3.48521C110.143 3.16868 110.055 2.95883 109.882 2.8568C109.779 2.79767 109.599 2.76868 109.341 2.76868H108.958V3.84925H108.472V1.11072H109.437L109.437 1.11074ZM32.9657 23.5885V23.5883C33.0833 23.5422 33.1852 23.4745 33.2688 23.4015L33.395 23.2915V23.4581V23.7707V23.8126L33.358 23.8348C33.2841 23.8794 33.1886 23.9306 33.0722 23.9702C32.954 24.0103 32.8132 24.0394 32.6493 24.0394C32.2704 24.0394 31.9394 23.91 31.7035 23.6892C31.4691 23.4698 31.3289 23.1603 31.3289 22.7984C31.3289 22.4343 31.4675 22.1254 31.7002 21.9066C31.935 21.6856 32.265 21.5574 32.6443 21.5574C32.8323 21.5574 32.9806 21.5854 33.0971 21.6237L33.0973 21.6233C33.2141 21.6614 33.2999 21.7117 33.3623 21.7548L33.395 21.7776V21.8163V22.109V22.2546L33.2753 22.1706C33.1373 22.0738 33.0249 22.017 32.9268 21.9853C32.8313 21.9545 32.7472 21.9463 32.6643 21.9463C32.3993 21.9463 32.189 22.0358 32.043 22.1798C31.8855 22.335 31.8006 22.5559 31.8006 22.7984C31.8006 23.0537 31.8891 23.2635 32.033 23.4103C32.1836 23.5639 32.3967 23.6506 32.6344 23.6506C32.7565 23.6506 32.8674 23.6266 32.9657 23.5884V23.5885ZM35.4195 23.9502H35.1196H35.0437V23.8748V22.0357H34.3501H34.2742V21.9603V21.7221V21.6467H34.3501H36.1893H36.2652V21.7221V21.9603V22.0357H36.1893H35.4955V23.8748V23.9502H35.4196H35.4195ZM39.3895 23.6895C39.1678 23.9087 38.8558 24.0395 38.4898 24.0395C38.1239 24.0395 37.8116 23.9085 37.59 23.6895C37.3655 23.4675 37.2343 23.1558 37.2343 22.7985C37.2343 22.4411 37.3655 22.1295 37.59 21.9074C37.8115 21.6884 38.1239 21.5575 38.4898 21.5575C38.8558 21.5575 39.1678 21.6883 39.3895 21.9074C39.614 22.1293 39.7452 22.4409 39.7452 22.7985C39.7452 23.1558 39.614 23.4677 39.3895 23.6895ZM37.9286 23.4079C37.7918 23.2603 37.706 23.0509 37.706 22.7985C37.706 22.546 37.7918 22.3367 37.9286 22.189C38.0717 22.0347 38.2724 21.9464 38.4898 21.9464C38.7071 21.9464 38.9078 22.0347 39.051 22.189C39.1878 22.3366 39.2734 22.546 39.2734 22.7985C39.2734 23.0509 39.1877 23.2603 39.051 23.4079C38.9078 23.5624 38.7071 23.6507 38.4898 23.6507C38.2724 23.6507 38.0717 23.5624 37.9286 23.4079ZM41.1402 23.9502H40.8401H40.7458L40.7661 23.8587L41.2809 21.5472L41.3293 21.3305L41.4236 21.5315L42.2444 23.2797L43.0604 21.5319L43.155 21.3298L43.2032 21.5472L43.718 23.8586L43.7385 23.9502H43.644H43.3439H43.2821L43.2699 23.8895L43.0052 22.5847L42.3132 24.0456L42.2449 24.19L42.1761 24.0458L41.4791 22.5839L41.2143 23.8895L41.2022 23.9502H41.1402L41.1402 23.9502ZM46.3863 21.6523C46.4826 21.6987 46.5773 21.766 46.663 21.8626V21.7221V21.6467H46.7389H47.0189H47.0948V21.7221V23.8748V23.9502H47.0189H46.7389H46.663V23.8748V23.7382C46.598 23.8066 46.5249 23.863 46.4465 23.9077C46.2906 23.9966 46.1138 24.0395 45.9393 24.0395C45.5808 24.0395 45.2842 23.9073 45.0749 23.6913C44.8569 23.4663 44.7339 23.1501 44.7339 22.7985C44.7339 22.4409 44.859 22.1289 45.0747 21.9071C45.2878 21.6883 45.5888 21.5575 45.9445 21.5575C46.0761 21.5575 46.2328 21.5778 46.3863 21.652V21.6522V21.6523ZM45.4186 23.4176C45.2818 23.2611 45.2056 23.0393 45.2056 22.7985C45.2056 22.5491 45.2851 22.3343 45.4188 22.1831C45.55 22.0347 45.7352 21.9465 45.9495 21.9465C46.1588 21.9465 46.3325 22.0361 46.4551 22.1803C46.5877 22.3361 46.663 22.5565 46.663 22.7985C46.663 23.0585 46.587 23.2712 46.4603 23.4184C46.3321 23.567 46.1496 23.6507 45.9393 23.6507C45.7216 23.6507 45.5436 23.5609 45.4186 23.4176V23.4176ZM49.3492 23.9502H49.0494H48.9735V23.8748V22.0357H48.2799H48.2039V21.9603V21.7221V21.6467H48.2799H50.119H50.195V21.7221V21.9603V22.0357H50.119H49.4252V23.8748V23.9502H49.3493H49.3492ZM53.3193 23.6895C53.0976 23.9087 52.7855 24.0395 52.4195 24.0395C52.0537 24.0395 51.7412 23.9085 51.5198 23.6895C51.2953 23.4675 51.1641 23.1558 51.1641 22.7985C51.1641 22.4411 51.2953 22.1295 51.5198 21.9075C51.7413 21.6884 52.0537 21.5575 52.4195 21.5575C52.7855 21.5575 53.0976 21.6883 53.3193 21.9075C53.5437 22.1293 53.675 22.441 53.675 22.7985C53.675 23.1558 53.5437 23.4677 53.3193 23.6895ZM51.8583 23.4079C51.7216 23.2603 51.6358 23.051 51.6358 22.7985C51.6358 22.546 51.7216 22.3367 51.8583 22.1891C52.0015 22.0347 52.2022 21.9465 52.4195 21.9465C52.6369 21.9465 52.8376 22.0347 52.9807 22.1891C53.1175 22.3367 53.2032 22.546 53.2032 22.7985C53.2032 23.051 53.1175 23.2603 52.9807 23.4079C52.8376 23.5624 52.6369 23.6507 52.4195 23.6507C52.2022 23.6507 52.0015 23.5624 51.8583 23.4079ZM55.1397 21.6467H56.669H56.745V21.7221V23.8749V23.9503H56.669H56.3692H56.2932V23.8749V22.0357H55.5157V23.2449C55.5157 23.4251 55.4742 23.603 55.3514 23.737C55.2298 23.8698 55.0306 23.9554 54.7189 23.95L54.6441 23.9489V23.8749V23.6368V23.5609L54.7208 23.5617C54.8803 23.5635 54.9653 23.5205 55.0079 23.4451C55.0562 23.3599 55.0638 23.2263 55.0638 23.0664V21.7221V21.6467H55.1397H55.1397ZM60.184 23.6895C59.9624 23.9087 59.6504 24.0395 59.2843 24.0395C58.9185 24.0395 58.6061 23.9085 58.3846 23.6895C58.1601 23.4675 58.029 23.1558 58.029 22.7985C58.029 22.4411 58.1601 22.1295 58.3846 21.9075C58.6061 21.6884 58.9185 21.5575 59.2843 21.5575C59.6504 21.5575 59.9623 21.6883 60.184 21.9075C60.4086 22.1293 60.5397 22.441 60.5397 22.7985C60.5397 23.1558 60.4085 23.4677 60.184 23.6895ZM58.7231 23.4079C58.5863 23.2603 58.5006 23.051 58.5006 22.7985C58.5006 22.546 58.5863 22.3367 58.7231 22.1891C58.8662 22.0347 59.067 21.9465 59.2843 21.9465C59.5016 21.9465 59.7024 22.0347 59.8455 22.1891C59.9822 22.3367 60.068 22.546 60.068 22.7985C60.068 23.051 59.9822 23.2603 59.8455 23.4079C59.7024 23.5624 59.5016 23.6507 59.2843 23.6507C59.067 23.6507 58.8662 23.5624 58.7231 23.4079ZM62.1994 23.9503H61.8996H61.8236V23.8749V21.7221V21.6467H61.8996H63.109H63.1849V21.7221V21.9603V22.0357H63.109H62.2754V23.8748V23.9502H62.1994V23.9503ZM64.294 24.0138V21.7221V21.6467H64.37H64.6698H64.7458V21.7221V23.083L66.0869 21.549L66.2201 21.3968V21.5983V23.8749V23.9503H66.1441H65.8442H65.7683V23.8749V22.529L64.4272 24.0631L64.294 24.2155V24.0138H64.294ZM69.2241 23.9503H68.9243H68.8483V23.8749V23.0929C68.7726 23.1024 68.6909 23.1117 68.6127 23.1184V23.1181C68.5168 23.1264 68.4253 23.1319 68.3547 23.1319C68.0608 23.1319 67.8676 23.0779 67.7441 22.9529C67.6199 22.8276 67.574 22.6397 67.574 22.3719V21.7221V21.6467H67.6499H67.9498H68.0257V21.7221V22.3719C68.0257 22.533 68.0467 22.6293 68.1027 22.6798L68.1025 22.68C68.16 22.7314 68.2664 22.748 68.4346 22.748C68.4944 22.748 68.5708 22.7437 68.6498 22.7374C68.7175 22.732 68.7867 22.7249 68.8483 22.7175V21.7221V21.6467H68.9243H69.2241H69.3001V21.7221V23.8749V23.9503H69.2241V23.9503ZM72.1012 23.5815C72.2284 23.5181 72.3646 23.3957 72.4758 23.1634L72.5093 23.0937L72.5783 23.128L72.8082 23.2419L72.8759 23.2755L72.8419 23.343C72.7389 23.5474 72.5962 23.7338 72.4003 23.8622H72.3998C72.232 23.972 72.0262 24.0395 71.7746 24.0395C71.4136 24.0395 71.1292 23.9022 70.9289 23.6928C70.7024 23.4558 70.5842 23.1259 70.5842 22.7985C70.5842 22.4588 70.6998 22.1335 70.9217 21.9012C71.1227 21.6912 71.4094 21.5575 71.7746 21.5575C72.1163 21.5575 72.3637 21.6835 72.5344 21.8622C72.7605 22.0989 72.8502 22.4287 72.8502 22.6796V22.8234V22.8988H72.7743H71.0573C71.0673 23.0723 71.1271 23.2504 71.2349 23.3895C71.3516 23.5395 71.5258 23.6456 71.7555 23.6507L71.7747 23.6509V23.6507C71.8546 23.6507 71.9758 23.6438 72.1012 23.5815ZM71.3161 22.1222C71.4363 22.0112 71.5964 21.9465 71.7797 21.9465C71.9613 21.9465 72.1052 22.0163 72.2075 22.1216C72.3095 22.2267 72.3721 22.3671 72.3921 22.5098H71.0966C71.1341 22.3525 71.2107 22.2191 71.3161 22.1222ZM75.631 23.5886V23.5884C75.7486 23.5423 75.8505 23.4746 75.9341 23.4016L76.0602 23.2916V23.4582V23.7708V23.8127L76.0234 23.8349C75.9494 23.8795 75.8539 23.9307 75.7375 23.9703C75.6192 24.0104 75.4785 24.0395 75.3147 24.0395C74.9356 24.0395 74.6047 23.9101 74.3688 23.6892C74.1344 23.4698 73.9942 23.1603 73.9942 22.7985C73.9942 22.4344 74.1328 22.1255 74.3655 21.9067C74.6003 21.6856 74.9303 21.5575 75.3097 21.5575C75.4977 21.5575 75.646 21.5855 75.7624 21.6238L75.7626 21.6233C75.8794 21.6615 75.9652 21.7118 76.0275 21.7549L76.0602 21.7777V21.8164V22.109V22.2547L75.9407 22.1706C75.8027 22.0738 75.6902 22.0171 75.5922 21.9854C75.4967 21.9545 75.4125 21.9464 75.3296 21.9464C75.0646 21.9464 74.8543 22.0358 74.7084 22.1799C74.5509 22.335 74.466 22.556 74.466 22.7985C74.466 23.0537 74.5544 23.2636 74.6984 23.4104C74.8489 23.5639 75.062 23.6507 75.2997 23.6507C75.4219 23.6507 75.5327 23.6267 75.631 23.5885V23.5886ZM77.63 23.9503H77.3302H77.2543V23.8749V21.7221V21.6467H77.3302H77.63H77.706V21.7221V22.5027L78.546 21.6689L78.5683 21.6467H78.5996H78.9594H79.147L79.0119 21.7764L78.0222 22.7258L79.0986 23.8225L79.2242 23.9503H79.0443H78.6596H78.6273L78.6048 23.9268L77.706 22.9871V23.8749V23.9503H77.6301L77.63 23.9503ZM81.7418 21.6523C81.8381 21.6988 81.9329 21.7661 82.0186 21.8626V21.7221V21.6467H82.0945H82.3744H82.4503V21.7221V23.8749V23.9503H82.3744H82.0945H82.0186V23.8749V23.7382C81.9535 23.8066 81.8804 23.863 81.802 23.9078C81.6461 23.9967 81.4693 24.0395 81.2948 24.0395C80.9363 24.0395 80.6397 23.9074 80.4304 23.6913C80.2125 23.4663 80.0895 23.1501 80.0895 22.7985C80.0895 22.441 80.2145 22.1289 80.4302 21.9071C80.6433 21.6883 80.9444 21.5575 81.3 21.5575C81.4316 21.5575 81.5883 21.5779 81.7418 21.6521V21.6523V21.6523ZM80.7741 23.4176C80.6373 23.2611 80.5611 23.0394 80.5611 22.7986C80.5611 22.5492 80.6407 22.3344 80.7743 22.1831C80.9055 22.0348 81.0907 21.9465 81.305 21.9465C81.5144 21.9465 81.688 22.0362 81.8106 22.1804C81.9431 22.3361 82.0185 22.5565 82.0185 22.7986C82.0185 23.0586 81.9426 23.2713 81.8158 23.4185C81.6876 23.5671 81.5051 23.6508 81.2948 23.6508C81.0771 23.6508 80.8991 23.5609 80.7741 23.4177L80.7741 23.4176ZM84.055 23.9503H83.7203H83.5776L83.6573 23.8328L84.2226 23.0001C84.0982 22.9673 83.9819 22.9034 83.8936 22.806C83.7935 22.6956 83.7293 22.5435 83.7293 22.3472C83.7293 22.1616 83.7881 21.9643 83.9586 21.8248C84.09 21.7176 84.2859 21.6467 84.5699 21.6467H85.3496H85.4255V21.7221V23.8749V23.9503H85.3496H85.0498H84.9738V23.8749V23.0476H84.6713L84.119 23.9149L84.0966 23.9503H84.0551L84.055 23.9503ZM84.6149 22.6586C84.5375 22.6586 84.4215 22.6519 84.3298 22.607C84.2473 22.5666 84.1811 22.4899 84.1811 22.3472C84.1811 22.2043 84.2473 22.1277 84.3298 22.0874C84.4217 22.0422 84.5375 22.0357 84.6149 22.0357H84.9738V22.6586H84.6149ZM88.3897 23.9503H88.0898H88.0139V23.8749V21.7221V21.6467H88.0898H88.3897H88.4656V21.7221V22.5027L89.3056 21.6689L89.3279 21.6467H89.3592H89.7191H89.9067L89.7715 21.7764L88.7818 22.7258L89.8582 23.8225L89.9838 23.9503H89.804H89.4192H89.3869L89.3644 23.9268L88.4656 22.9871V23.8749V23.9503H88.3897L88.3897 23.9503ZM91.1698 21.6467H92.6992H92.7752V21.7221V23.8749V23.9503H92.6992H92.3994H92.3234V23.8749V22.0357H91.5459V23.2449C91.5459 23.4251 91.5044 23.6031 91.3816 23.737C91.26 23.8698 91.0608 23.9555 90.749 23.9501L90.6743 23.9489V23.8749V23.6369V23.5609L90.751 23.5617C90.9105 23.5635 90.9954 23.5205 91.0381 23.4451C91.0863 23.3599 91.0939 23.2263 91.0939 23.0664V21.7221V21.6467H91.1698H91.1698ZM94.1991 24.0138V21.7221V21.6467H94.275H94.5749H94.6508V21.7221V23.083L95.992 21.549L96.1252 21.3968V21.5983V23.8749V23.9503H96.0492H95.7493H95.6734V23.8749V22.529L94.3323 24.0631L94.1991 24.2155V24.0138H94.1991ZM97.9248 23.9503H97.625H97.549V23.8749V21.7221V21.6467H97.625H97.9248H98.0008V21.7221V22.5793H99.0683V21.7221V21.6467H99.1443H99.4442H99.5202V21.7221V23.8749V23.9503H99.4442H99.1443H99.0683V23.8749V22.9683H98.0008V23.8749V23.9503H97.9248ZM100.944 24.0138V21.7221V21.6467H101.02H101.32H101.396V21.7221V23.083L102.737 21.549L102.87 21.3968V21.5983V23.8749V23.9503H102.794H102.494H102.418V23.8749V22.529L101.077 24.0631L100.944 24.2155V24.0138H100.944ZM104.67 23.9503H104.37H104.294V23.8749V21.7221V21.6467H104.37H104.67H104.746V21.7221V22.5027L105.586 21.6689L105.608 21.6467H105.639H105.999H106.187L106.052 21.7764L105.062 22.7258L106.138 23.8225L106.264 23.9503H106.084H105.699H105.667L105.645 23.9268L104.746 22.9871V23.8749V23.9503H104.67L104.67 23.9503ZM108.782 21.6523C108.878 21.6988 108.973 21.7661 109.058 21.8626V21.7221V21.6467H109.134H109.414H109.49V21.7221V23.8749V23.9503H109.414H109.134H109.058V23.8749V23.7382C108.993 23.8066 108.92 23.863 108.842 23.9078C108.686 23.9967 108.509 24.0395 108.335 24.0395C107.976 24.0395 107.68 23.9074 107.47 23.6913C107.252 23.4663 107.129 23.1501 107.129 22.7985C107.129 22.441 107.254 22.1289 107.47 21.9071C107.683 21.6883 107.984 21.5575 108.34 21.5575C108.471 21.5575 108.628 21.5779 108.782 21.6521V21.6523V21.6523ZM107.814 23.4176C107.677 23.2611 107.601 23.0394 107.601 22.7986C107.601 22.5492 107.68 22.3344 107.814 22.1831C107.945 22.0348 108.13 21.9465 108.345 21.9465C108.554 21.9465 108.728 22.0362 108.85 22.1804C108.983 22.3361 109.058 22.5565 109.058 22.7986C109.058 23.0586 108.982 23.2713 108.855 23.4185C108.727 23.5671 108.545 23.6508 108.335 23.6508C108.117 23.6508 107.939 23.5609 107.814 23.4177L107.814 23.4176ZM31.1704 17.1099V11.9833V11.6692H31.4869H31.9453H32.2619V11.9833V12.8189H35.3629C35.5056 12.8189 35.639 12.8042 35.7624 12.7756C35.8832 12.7474 35.9979 12.7045 36.1049 12.6481L36.1053 12.6492C36.2169 12.5898 36.321 12.5205 36.4151 12.4428C36.5095 12.3648 36.5959 12.2766 36.6737 12.179V12.1778C36.7538 12.0775 36.8253 11.9703 36.8868 11.8574C36.9485 11.7445 37.0023 11.6222 37.0475 11.4912L37.0479 11.4914C37.0924 11.3624 37.1259 11.2318 37.1478 11.1012C37.1695 10.973 37.1805 10.8399 37.1805 10.7029C37.1805 10.5648 37.1677 10.4306 37.1427 10.3018C37.1171 10.1715 37.0784 10.0422 37.0271 9.91617C36.975 9.78694 36.9137 9.66646 36.8444 9.55526C36.7762 9.4455 36.6968 9.34099 36.6077 9.24283C36.5202 9.14652 36.4257 9.0596 36.3252 8.98325C36.2235 8.90592 36.1147 8.83786 35.9998 8.78003H35.9986C35.8884 8.72442 35.7733 8.68246 35.6547 8.6546C35.5367 8.6269 35.4131 8.61284 35.2843 8.61284H32.2619V9.20366V9.51785H31.9453H31.4869H31.1704V9.20366V7.88292V7.56868H31.4869H35.2974C35.5124 7.56868 35.7209 7.59221 35.9223 7.63912C36.1218 7.68548 36.315 7.75623 36.5012 7.85104C36.6812 7.94283 36.8489 8.04817 37.0024 8.16603C37.1571 8.2848 37.3003 8.4181 37.432 8.56573C37.5632 8.71293 37.6803 8.86944 37.7816 9.03389C37.8824 9.19773 37.9708 9.37362 38.0455 9.56097C38.1213 9.75013 38.1779 9.9391 38.215 10.1263C38.2531 10.3188 38.2722 10.5111 38.2722 10.7029C38.2722 10.9021 38.2544 11.0998 38.2197 11.2946C38.1851 11.4884 38.132 11.6808 38.0623 11.8701C37.9931 12.0571 37.9094 12.2348 37.8113 12.4034C37.7138 12.5708 37.6011 12.7287 37.4751 12.8754C37.35 13.0212 37.2103 13.1547 37.0574 13.2746C36.9065 13.3931 36.7426 13.4974 36.5678 13.5866L36.568 13.5872C36.2073 13.771 35.8098 13.8632 35.376 13.8632H32.2619V17.1098V17.424H31.9453H31.4869H31.1704V17.1098L31.1704 17.1099ZM30.98 10.3756H30.9363L30.9142 10.4137L30.7912 10.6263L30.726 10.7391H30.857H32.4481H32.4918L32.5137 10.7011L32.637 10.4884L32.7023 10.3756H32.5713H30.98V10.3756ZM65.7942 16.3906H66.1086L69.8568 7.75902L69.9395 7.56868H70.1472H70.5402H70.7483L70.8307 7.75902L74.8243 16.986L75.0141 17.4241H74.5339H74.0494H73.8411L73.7589 17.2325L70.3438 9.25591L67.2889 16.3906H71.6182H71.7914L71.8666 16.5711L72.0651 17.0477L72.252 17.4957H71.8167H65.6385H65.2434L65.3815 17.0722L65.5373 16.5956L65.6043 16.3906H65.7943H65.7942ZM43.3678 15.5115L49.2139 7.69637L49.3093 7.56868H49.4673H49.8603H50.1768V7.88292V17.1099V17.4241H49.8603H49.4019H49.0853V17.1099V9.6105L43.3307 17.2965L43.2352 17.4241H43.0773H42.6061H42.2895V17.1099V7.88292V7.56868H42.6061H43.0513H43.3678V7.88292V15.5115ZM58.321 7.56868H58.7141H58.9223L59.0046 7.75902L62.9981 16.986L63.1879 17.4241H62.7076H62.2232H62.0149L61.9327 17.2325L58.5161 9.25276L56.7979 13.2218H58.3355H58.5483L58.6286 13.4183L58.7883 13.808L58.9653 14.24H58.4953H56.3945L55.1025 17.2325L55.0199 17.4241H54.812H54.3143H53.8337L54.0238 16.986L58.0306 7.75905L58.1133 7.5687H58.321L58.321 7.56868ZM85.4721 16.6939V17.1099V17.4241H85.1556H79.0142H78.6977V17.1099V7.88292V7.56868H79.0142H85.0375H85.3541V7.88292V8.29863V8.61287H85.0375H79.7892V11.8702H84.3435H84.6601V12.1843V12.6004V12.9147H84.3435H79.7892V16.3797H85.1555H85.4721V16.6939H85.4721ZM97.4553 7.88292V17.1099V17.4241H97.1387H96.6935H96.3769V17.1099V12.9147H90.8297V17.1099V17.4241H90.5131H90.0548H89.7382V17.1099V7.88292V7.56868H90.0548H90.5131H90.8297V7.88292V11.8701H96.3769V7.88292V7.56868H96.6935H97.1387H97.4553V7.88292ZM17.7806 3.73501H8.71382L13.2548 14.0688L17.7806 3.73501H17.7806Z" fill="black"/>
</svg>
