<svg width="219" height="48" viewBox="0 0 219 48" fill="none" xmlns="http://www.w3.org/2000/svg">
<path fill-rule="evenodd" clip-rule="evenodd" d="M31.6298 46.5778L27.7077 37.664L29.0413 34.6183L32.5713 42.6518L48.0524 7.30313H37.4532L20.2316 46.5779H18.3447L0 4.8788C2.99654 4.8788 5.9902 4.88111 8.98792 4.88111L9.98943 7.30397H3.7536L19.2862 42.6518L24.5822 30.5594C20.8163 21.9996 17.0354 13.4452 13.2848 4.87875H51.8015L33.5164 46.5778H31.63H31.6298ZM213.219 16.841H207.027V33.4556V34.07H206.408H205.512H204.893V33.4556V16.841H198.702H198.083V16.2265V15.4137V14.7992H198.702H213.219H213.838V15.4137V16.2265V16.841H213.219ZM214.082 0.657468C212.917 0.657468 211.923 1.07007 211.096 1.89301C210.276 2.71369 209.865 3.7021 209.865 4.86287C209.865 6.03043 210.274 7.02794 211.09 7.85088C211.912 8.67382 212.908 9.08642 214.082 9.08642C215.256 9.08642 216.252 8.67382 217.074 7.85088C217.894 7.02794 218.305 6.03043 218.305 4.86287C218.305 3.70215 217.894 2.71369 217.074 1.89301C216.247 1.07007 215.251 0.657468 214.082 0.657468H214.082ZM219 4.86287C219 6.21404 218.52 7.36572 217.561 8.32242C216.604 9.27913 215.443 9.75745 214.082 9.75745C212.721 9.75745 211.565 9.27908 210.61 8.32242C209.66 7.37024 209.185 6.2163 209.185 4.86287C209.185 3.52075 209.662 2.37365 210.621 1.42147C211.576 0.473855 212.73 0 214.082 0C215.443 0 216.604 0.473806 217.561 1.42147C218.52 2.36908 219 3.51623 219 4.86287H219ZM215.368 3.79964C215.368 3.4097 215.247 3.14895 215.009 3.01524C214.77 2.88373 214.388 2.81575 213.86 2.81575H213.052V4.75634H213.908C214.31 4.75634 214.612 4.71554 214.811 4.6362C215.183 4.49107 215.368 4.21224 215.368 3.79964H215.368ZM213.988 2.1719C214.658 2.1719 215.149 2.23762 215.462 2.3646C216.019 2.59585 216.298 3.047 216.298 3.72029C216.298 4.19867 216.122 4.55007 215.768 4.77674C215.581 4.89463 215.32 4.98307 214.987 5.03518C215.409 5.10091 215.72 5.27547 215.916 5.55888C216.113 5.84229 216.211 6.12113 216.211 6.39092V6.78086C216.211 6.90558 216.215 7.03929 216.225 7.17989C216.231 7.3227 216.247 7.41566 216.27 7.45873L216.305 7.52671H215.414C215.409 7.50857 215.405 7.49043 215.4 7.47229C215.395 7.45415 215.391 7.43601 215.386 7.41335L215.368 7.24104V6.81483C215.368 6.1959 215.197 5.78556 214.859 5.58607C214.658 5.47044 214.306 5.41376 213.801 5.41376H213.052V7.52667H212.101V2.17185H213.988L213.988 2.1719ZM64.4597 46.124V46.1236C64.6896 46.0335 64.889 45.9011 65.0523 45.7584L65.2991 45.5432V45.869V46.4803V46.5622L65.2269 46.6056C65.0823 46.6928 64.8956 46.7929 64.668 46.8703C64.4368 46.9488 64.1615 47.0057 63.841 47.0057C63.1001 47.0057 62.4529 46.7527 61.9917 46.3208C61.5333 45.8918 61.2591 45.2866 61.2591 44.5791C61.2591 43.8671 61.5302 43.2631 61.9851 42.8352C62.4443 42.403 63.0895 42.1524 63.8312 42.1524C64.1989 42.1524 64.4889 42.2072 64.7167 42.282L64.7171 42.2812C64.9455 42.3558 65.1132 42.4541 65.2351 42.5385L65.2991 42.583V42.6587V43.2309V43.5157L65.0652 43.3514C64.7953 43.1621 64.5756 43.0511 64.3837 42.9891C64.1969 42.9288 64.0325 42.9129 63.8703 42.9129C63.3522 42.9129 62.9409 43.0878 62.6556 43.3695C62.3476 43.6728 62.1815 44.1049 62.1815 44.579C62.1815 45.0781 62.3546 45.4885 62.636 45.7755C62.9305 46.0758 63.3471 46.2453 63.8118 46.2453C64.0507 46.2453 64.2675 46.1985 64.4597 46.1238V46.124ZM69.2579 46.8312H68.6714H68.5229V46.6838V43.0876H67.1668H67.0183V42.9402V42.4744V42.3269H67.1668H70.7629H70.9115V42.4744V42.9402V43.0876H70.7629H69.4064V46.6838V46.8312H69.2579H69.2579ZM77.0205 46.3214C76.5871 46.75 75.977 47.0058 75.2612 47.0058C74.5459 47.0058 73.9351 46.7496 73.5018 46.3214C73.063 45.8873 72.8064 45.2778 72.8064 44.5792C72.8064 43.8804 73.063 43.2711 73.5018 42.8369C73.935 42.4086 74.5459 42.1526 75.2612 42.1526C75.977 42.1526 76.5871 42.4083 77.0205 42.8369C77.4595 43.2707 77.716 43.8801 77.716 44.5792C77.716 45.2779 77.4595 45.8877 77.0205 46.3214ZM74.1639 45.7709C73.8964 45.4822 73.7288 45.0728 73.7288 44.5792C73.7288 44.0855 73.8964 43.6761 74.1639 43.3875C74.4438 43.0857 74.8362 42.9131 75.2612 42.9131C75.6862 42.9131 76.0787 43.0857 76.3587 43.3875C76.6261 43.6761 76.7936 44.0855 76.7936 44.5792C76.7936 45.0728 76.626 45.4822 76.3587 45.7709C76.0787 46.0729 75.6862 46.2456 75.2612 46.2456C74.8362 46.2456 74.4438 46.0729 74.1639 45.7709ZM80.4437 46.8313H79.857H79.6726L79.7123 46.6522L80.7188 42.1325L80.8136 41.7087L80.998 42.1018L82.603 45.5201L84.1985 42.1025L84.3834 41.7075L84.4777 42.1324L85.4842 46.6521L85.5244 46.8312H85.3396H84.7529H84.632L84.608 46.7124L84.0906 44.1612L82.7375 47.0178L82.6038 47.3002L82.4693 47.018L81.1065 44.1597L80.5887 46.7124L80.565 46.8312H80.4437L80.4437 46.8313ZM90.7018 42.3379C90.8901 42.4288 91.0752 42.5603 91.2428 42.7491V42.4744V42.3269H91.3913H91.9387H92.0872V42.4744V46.6839V46.8313H91.9387H91.3913H91.2428V46.6839V46.4166C91.1157 46.5504 90.9727 46.6606 90.8195 46.7481C90.5146 46.9219 90.1689 47.0058 89.8278 47.0058C89.1268 47.0058 88.5468 46.7473 88.1375 46.3249C87.7113 45.885 87.4708 45.2666 87.4708 44.5792C87.4708 43.88 87.7153 43.2698 88.1371 42.8362C88.5538 42.4083 89.1424 42.1525 89.8379 42.1525C90.0952 42.1525 90.4016 42.1923 90.7018 42.3375V42.3379V42.3379ZM88.8096 45.7897C88.5421 45.4838 88.3932 45.0501 88.3932 44.5793C88.3932 44.0916 88.5486 43.6716 88.8099 43.3759C89.0666 43.0858 89.4286 42.9132 89.8476 42.9132C90.257 42.9132 90.5966 43.0885 90.8363 43.3704C91.0955 43.675 91.2428 44.106 91.2428 44.5793C91.2428 45.0876 91.0943 45.5036 90.8465 45.7914C90.5958 46.082 90.239 46.2456 89.8278 46.2456C89.402 46.2456 89.0539 46.0699 88.8096 45.7898V45.7897ZM96.4954 46.8313H95.9091H95.7607V46.6839V43.0876H94.4044H94.2559V42.9403V42.4744V42.327H94.4044H98.0006H98.1491V42.4744V42.9403V43.0876H98.0006H96.644V46.6839V46.8313H96.4954H96.4954ZM104.258 46.3214C103.825 46.7501 103.215 47.0059 102.499 47.0059C101.784 47.0059 101.173 46.7497 100.74 46.3214C100.301 45.8873 100.044 45.2779 100.044 44.5793C100.044 43.8804 100.301 43.2711 100.74 42.8369C101.173 42.4086 101.784 42.1526 102.499 42.1526C103.215 42.1526 103.825 42.4084 104.258 42.8369C104.697 43.2708 104.954 43.8801 104.954 44.5793C104.954 45.2779 104.697 45.8877 104.258 46.3214ZM101.402 45.7709C101.134 45.4823 100.966 45.0729 100.966 44.5793C100.966 44.0855 101.134 43.6762 101.402 43.3875C101.681 43.0858 102.074 42.9132 102.499 42.9132C102.924 42.9132 103.316 43.0858 103.596 43.3875C103.864 43.6761 104.031 44.0855 104.031 44.5793C104.031 45.0729 103.864 45.4823 103.596 45.7709C103.316 46.073 102.924 46.2456 102.499 46.2456C102.074 46.2456 101.681 46.073 101.402 45.7709ZM107.818 42.327H110.808H110.957V42.4744V46.6839V46.8313H110.808H110.222H110.073V46.6839V43.0877H108.553V45.4521C108.553 45.8045 108.472 46.1524 108.232 46.4143C107.994 46.6739 107.604 46.8414 106.995 46.8309L106.849 46.8286V46.6839V46.2185V46.07L106.999 46.0715C107.311 46.0751 107.477 45.9909 107.56 45.8436C107.654 45.6769 107.669 45.4157 107.669 45.1031V42.4744V42.327H107.818H107.818ZM117.681 46.3214C117.248 46.7501 116.638 47.0059 115.922 47.0059C115.207 47.0059 114.596 46.7497 114.163 46.3214C113.724 45.8873 113.467 45.2779 113.467 44.5793C113.467 43.8804 113.724 43.2711 114.163 42.8369C114.596 42.4086 115.207 42.1526 115.922 42.1526C116.638 42.1526 117.248 42.4084 117.681 42.8369C118.12 43.2708 118.377 43.8801 118.377 44.5793C118.377 45.2779 118.12 45.8877 117.681 46.3214ZM114.825 45.7709C114.557 45.4823 114.389 45.0729 114.389 44.5793C114.389 44.0855 114.557 43.6762 114.825 43.3875C115.104 43.0858 115.497 42.9132 115.922 42.9132C116.347 42.9132 116.74 43.0858 117.019 43.3875C117.287 43.6761 117.454 44.0855 117.454 44.5793C117.454 45.0729 117.287 45.4823 117.019 45.7709C116.74 46.073 116.347 46.2456 115.922 46.2456C115.497 46.2456 115.104 46.073 114.825 45.7709ZM121.622 46.8313H121.036H120.887V46.6839V42.4744V42.327H121.036H123.401H123.549V42.4744V42.9403V43.0876H123.401H121.771V46.6839V46.8313H121.622V46.8313ZM125.718 46.9555V42.4744V42.327H125.866H126.453H126.601V42.4744V45.1356L129.223 42.136L129.484 41.8384V42.2323V46.6839V46.8313H129.335H128.749H128.6V46.6839V44.0522L125.978 47.0519L125.718 47.3499V46.9555H125.718ZM135.358 46.8313H134.772H134.623V46.6839V45.1549C134.475 45.1735 134.315 45.1916 134.162 45.2048V45.2041C133.975 45.2204 133.796 45.2311 133.658 45.2311C133.083 45.2311 132.705 45.1255 132.464 44.8811C132.221 44.6361 132.131 44.2686 132.131 43.7451V42.4745V42.327H132.28H132.866H133.015V42.4745V43.7451C133.015 44.0601 133.056 44.2484 133.165 44.3471L133.165 44.3475C133.277 44.4481 133.485 44.4805 133.814 44.4805C133.931 44.4805 134.08 44.4721 134.235 44.4597C134.367 44.4491 134.503 44.4353 134.623 44.4209V42.4745V42.327H134.772H135.358H135.506V42.4745V46.684V46.8314H135.358V46.8313ZM140.984 46.1103C141.232 45.9864 141.499 45.7469 141.716 45.2927L141.781 45.1565L141.916 45.2235L142.366 45.4462L142.498 45.512L142.432 45.644C142.231 46.0436 141.951 46.408 141.568 46.6592H141.568C141.239 46.8739 140.837 47.0058 140.345 47.0058C139.639 47.0058 139.083 46.7372 138.691 46.3279C138.248 45.8646 138.017 45.2195 138.017 44.5793C138.017 43.915 138.243 43.2789 138.677 42.8246C139.07 42.4141 139.631 42.1526 140.345 42.1526C141.013 42.1526 141.497 42.3991 141.831 42.7483C142.273 43.2112 142.448 43.8561 142.448 44.3466V44.6279V44.7754H142.3H138.942C138.962 45.1146 139.079 45.4628 139.29 45.7349C139.518 46.0282 139.859 46.2355 140.308 46.2456L140.345 46.2459V46.2456C140.501 46.2456 140.738 46.232 140.984 46.1103ZM139.448 43.2568C139.683 43.0398 139.997 42.9132 140.355 42.9132C140.71 42.9132 140.991 43.0497 141.191 43.2557C141.391 43.4611 141.513 43.7357 141.552 44.0147H139.019C139.092 43.7072 139.242 43.4464 139.448 43.2568ZM147.886 46.1242V46.1238C148.116 46.0336 148.315 45.9013 148.478 45.7585L148.725 45.5434V45.8692V46.4804V46.5624L148.653 46.6058C148.508 46.6929 148.322 46.793 148.094 46.8704C147.863 46.9489 147.587 47.0058 147.267 47.0058C146.526 47.0058 145.879 46.7528 145.418 46.3209C144.959 45.8919 144.685 45.2867 144.685 44.5792C144.685 43.8672 144.956 43.2632 145.411 42.8354C145.87 42.4032 146.515 42.1525 147.257 42.1525C147.625 42.1525 147.915 42.2074 148.143 42.2822L148.143 42.2814C148.371 42.356 148.539 42.4543 148.661 42.5386L148.725 42.5831V42.6588V43.2311V43.5158L148.491 43.3515C148.221 43.1622 148.001 43.0513 147.81 42.9892C147.623 42.929 147.458 42.9131 147.296 42.9131C146.778 42.9131 146.367 43.0879 146.082 43.3697C145.774 43.673 145.608 44.1051 145.608 44.5792C145.608 45.0783 145.781 45.4887 146.062 45.7757C146.356 46.0759 146.773 46.2455 147.238 46.2455C147.477 46.2455 147.693 46.1986 147.886 46.124V46.1242ZM151.794 46.8314H151.208H151.06V46.684V42.4745V42.327H151.208H151.794H151.943V42.4745V44.0008L153.585 42.3705L153.629 42.3271H153.69H154.394H154.761L154.496 42.5806L152.561 44.437L154.666 46.5815L154.912 46.8314H154.56H153.808H153.744L153.7 46.7854L151.943 44.948V46.684V46.8314H151.794L151.794 46.8314ZM159.834 42.338C160.023 42.4289 160.208 42.5605 160.376 42.7492V42.4745V42.327H160.524H161.071H161.22V42.4745V46.684V46.8314H161.071H160.524H160.376V46.684V46.4167C160.248 46.5505 160.105 46.6607 159.952 46.7482C159.647 46.922 159.301 47.0059 158.96 47.0059C158.259 47.0059 157.679 46.7474 157.27 46.325C156.844 45.8851 156.604 45.2667 156.604 44.5793C156.604 43.8801 156.848 43.2699 157.27 42.8363C157.686 42.4084 158.275 42.1526 158.971 42.1526C159.228 42.1526 159.534 42.1924 159.834 42.3376V42.338V42.338ZM157.942 45.7898C157.675 45.4839 157.526 45.0502 157.526 44.5794C157.526 44.0917 157.681 43.6717 157.943 43.376C158.199 43.0859 158.561 42.9133 158.98 42.9133C159.39 42.9133 159.729 43.0886 159.969 43.3705C160.228 43.6751 160.376 44.1061 160.376 44.5794C160.376 45.0877 160.227 45.5037 159.979 45.7915C159.728 46.0821 159.372 46.2457 158.96 46.2457C158.535 46.2457 158.187 46.07 157.942 45.7899L157.942 45.7898ZM164.358 46.8314H163.703H163.424L163.58 46.6017L164.685 44.9734C164.442 44.9093 164.215 44.7843 164.042 44.594C163.846 44.3781 163.721 44.0805 163.721 43.6967C163.721 43.3338 163.836 42.9481 164.169 42.6753C164.426 42.4656 164.809 42.327 165.364 42.327H166.889H167.037V42.4744V46.6839V46.8313H166.889H166.303H166.154V46.6839V45.0663H165.563L164.483 46.7621L164.439 46.8313H164.358L164.358 46.8314ZM165.452 44.3057C165.301 44.3057 165.074 44.2925 164.895 44.2047C164.733 44.1259 164.604 43.9757 164.604 43.6967C164.604 43.4173 164.733 43.2676 164.895 43.1887C165.075 43.1005 165.301 43.0877 165.452 43.0877H166.154V44.3057H165.452ZM172.833 46.8314H172.247H172.099V46.684V42.4745V42.327H172.247H172.833H172.982V42.4745V44.0008L174.624 42.3705L174.668 42.3271H174.729H175.433H175.8L175.535 42.5806L173.6 44.437L175.705 46.5815L175.95 46.8314H175.599H174.846H174.783L174.739 46.7854L172.982 44.948V46.684V46.8314H172.833L172.833 46.8314ZM178.27 42.327H181.26H181.409V42.4745V46.684V46.8314H181.26H180.674H180.525V46.684V43.0877H179.005V45.4521C179.005 45.8045 178.924 46.1524 178.684 46.4144C178.446 46.674 178.056 46.8415 177.447 46.8309L177.301 46.8286V46.684V46.2185V46.07L177.451 46.0715C177.762 46.0751 177.928 45.991 178.012 45.8436C178.106 45.677 178.121 45.4157 178.121 45.1031V42.4745V42.327H178.27H178.27ZM184.193 46.9555V42.4745V42.327H184.341H184.928H185.076V42.4745V45.1356L187.699 42.136L187.959 41.8384V42.2324V46.684V46.8314H187.811H187.224H187.076V46.684V44.0523L184.453 47.052L184.193 47.3499V46.9555H184.193ZM191.478 46.8314H190.892H190.743V46.684V42.4745V42.327H190.892H191.478H191.627V42.4745V44.1506H193.714V42.4745V42.327H193.863H194.449H194.597V42.4745V46.684V46.8314H194.449H193.863H193.714V46.684V44.9112H191.627V46.684V46.8314H191.478ZM197.382 46.9555V42.4745V42.327H197.53H198.116H198.265V42.4745V45.1356L200.887 42.136L201.148 41.8384V42.2324V46.684V46.8314H200.999H200.413H200.264V46.684V44.0523L197.642 47.052L197.382 47.3499V46.9555H197.382ZM204.667 46.8314H204.08H203.932V46.684V42.4745V42.327H204.08H204.667H204.815V42.4745V44.0008L206.458 42.3705L206.501 42.3271H206.563H207.266H207.633L207.369 42.5806L205.434 44.437L207.538 46.5815L207.784 46.8314H207.432H206.68H206.617L206.573 46.7854L204.815 44.948V46.684V46.8314H204.667L204.667 46.8314ZM212.707 42.338C212.895 42.4289 213.08 42.5605 213.248 42.7492V42.4745V42.327H213.396H213.944H214.092V42.4745V46.684V46.8314H213.944H213.396H213.248V46.684V46.4167C213.121 46.5505 212.978 46.6607 212.824 46.7482C212.52 46.922 212.174 47.0059 211.833 47.0059C211.132 47.0059 210.552 46.7474 210.142 46.325C209.716 45.8851 209.476 45.2667 209.476 44.5793C209.476 43.8801 209.72 43.2699 210.142 42.8363C210.559 42.4084 211.148 42.1526 211.843 42.1526C212.1 42.1526 212.407 42.1924 212.707 42.3376V42.338V42.338ZM210.814 45.7898C210.547 45.4839 210.398 45.0502 210.398 44.5794C210.398 44.0917 210.554 43.6717 210.815 43.376C211.071 43.0859 211.434 42.9133 211.853 42.9133C212.262 42.9133 212.601 43.0886 212.841 43.3705C213.1 43.6751 213.248 44.1061 213.248 44.5794C213.248 45.0877 213.099 45.5037 212.851 45.7915C212.601 46.0821 212.244 46.2457 211.833 46.2457C211.407 46.2457 211.059 46.07 210.814 45.7899L210.814 45.7898ZM60.9493 33.4559V23.4317V22.8174H61.5682H62.4645H63.0836V23.4317V25.0656H69.1471C69.4261 25.0656 69.687 25.0369 69.9282 24.9808C70.1645 24.9258 70.3887 24.8419 70.598 24.7316L70.5988 24.7337C70.817 24.6175 71.0205 24.482 71.2046 24.33C71.389 24.1776 71.5582 24.005 71.7101 23.8142V23.8119C71.8669 23.6158 72.0065 23.4061 72.1269 23.1856C72.2474 22.9647 72.3527 22.7256 72.4411 22.4694L72.4419 22.4698C72.5288 22.2175 72.5943 21.9622 72.6372 21.7068C72.6797 21.456 72.7011 21.1958 72.7011 20.928C72.7011 20.6579 72.6762 20.3956 72.6272 20.1437C72.5772 19.8888 72.5015 19.6361 72.4013 19.3896C72.2993 19.137 72.1795 18.9014 72.0439 18.684C71.9105 18.4693 71.7553 18.265 71.5811 18.073C71.4101 17.8847 71.2252 17.7148 71.0287 17.5655C70.83 17.4142 70.6171 17.2812 70.3924 17.1681H70.3901C70.1746 17.0594 69.9497 16.9773 69.7178 16.9228C69.4869 16.8687 69.2453 16.8412 68.9934 16.8412H63.0835V17.9965V18.6108H62.4644H61.5682H60.9492V17.9965V15.4139V14.7995H61.5682H69.0191C69.4394 14.7995 69.8472 14.8455 70.2409 14.9372C70.631 15.0279 71.0088 15.1662 71.3729 15.3516C71.7249 15.5311 72.0528 15.737 72.353 15.9675C72.6554 16.1997 72.9354 16.4604 73.193 16.7491C73.4496 17.0369 73.6785 17.3429 73.8764 17.6645C74.0737 17.9848 74.2464 18.3288 74.3926 18.6951C74.5407 19.065 74.6514 19.4345 74.7239 19.8006C74.7984 20.177 74.8358 20.553 74.8358 20.928C74.8358 21.3175 74.801 21.7041 74.7333 22.0849C74.6654 22.4639 74.5618 22.8401 74.4253 23.2104C74.29 23.5759 74.1264 23.9234 73.9345 24.253C73.7439 24.5803 73.5236 24.8891 73.2772 25.1761C73.0325 25.4612 72.7595 25.7221 72.4605 25.9565C72.1654 26.1883 71.845 26.3922 71.5031 26.5666L71.5035 26.5679C70.7983 26.9273 70.021 27.1075 69.1728 27.1075H63.0835V33.4558V34.0702H62.4644H61.5682H60.9492V33.4558L60.9493 33.4559ZM60.577 20.2881H60.4915L60.4482 20.3624L60.2077 20.7783L60.0802 20.9989H60.3364H63.4477H63.5331L63.5759 20.9245L63.8169 20.5086L63.9447 20.288H63.6886H60.577V20.2881ZM128.651 32.0495H129.266L136.595 15.1717L136.757 14.7995H137.163H137.931H138.338L138.499 15.1717L146.308 33.2136L146.679 34.0703H145.74H144.793H144.386L144.225 33.6957L137.547 18.0986L131.574 32.0495H140.039H140.378L140.525 32.4023L140.913 33.3344L141.278 34.2103H140.427H128.347H127.574L127.844 33.3823L128.149 32.4504L128.28 32.0495H128.651H128.651ZM84.7996 30.3306L96.2308 15.0492L96.4174 14.7995H96.7262H97.4947H98.1136V15.4139V33.4559V34.0703H97.4947H96.5984H95.9793V33.4559V18.792L84.7271 33.8208L84.5404 34.0703H84.2316H83.3101H82.6911V33.4559V15.4139V14.7995H83.3101H84.1806H84.7996V15.4139V30.3306ZM114.038 14.7995H114.807H115.214L115.375 15.1717L123.184 33.2136L123.555 34.0703H122.616H121.669H121.261L121.101 33.6957L114.42 18.0925L111.06 25.8533H114.067H114.483L114.64 26.2375L114.952 26.9996L115.298 27.8443H114.379H110.271L107.745 33.6957L107.584 34.0703H107.177H106.204H105.264L105.636 33.2137L113.47 15.1717L113.632 14.7995H114.038L114.038 14.7995ZM167.128 32.6425V33.4559V34.0703H166.51H154.501H153.882V33.4559V15.4139V14.7995H154.501H166.279H166.898V15.4139V16.2268V16.8412H166.279H156.016V23.2104H164.922H165.541V23.8247V24.6384V25.2528H164.922H156.016V32.0282H166.509H167.128V32.6425H167.128ZM190.56 15.4139V33.4559V34.0703H189.941H189.07H188.451V33.4559V25.2528H177.605V33.4559V34.0703H176.985H176.089H175.47V33.4559V15.4139V14.7995H176.089H176.985H177.605V15.4139V23.2104H188.451V15.4139V14.7995H189.07H189.941H190.56V15.4139ZM34.7675 7.30328H17.0386L25.9179 27.5095L34.7675 7.30328H34.7675Z" fill="black"/>
</svg>
