<svg width="265" height="263" viewBox="0 0 265 263" fill="none" xmlns="http://www.w3.org/2000/svg">
<path opacity="0.1" d="M134.724 2.19142C154.121 4.20275 173.385 8.12126 190.374 17.6947C207.428 27.3046 220.518 42.0223 232.659 57.3779C245.362 73.4447 259.178 89.7231 263.2 109.806C267.268 130.126 262.177 151.126 255.348 170.692C248.653 189.874 237.646 207.013 224.014 222.078C210.301 237.234 195.12 252.1 175.759 258.649C156.647 265.114 135.638 263.207 115.992 258.617C97.7016 254.344 83.0512 242.066 66.531 233.129C49.6119 223.977 28.2743 220.589 16.9511 205.039C5.61251 189.467 7.98226 168.247 5.38757 149.16C2.82746 130.328 -2.44036 111.523 1.71735 92.9778C5.98999 73.9199 16.7076 57.0236 29.3765 42.1589C42.316 26.9765 57.3371 12.9095 75.9883 5.83354C94.5619 -1.213 114.965 0.142492 134.724 2.19142Z" fill="black"/>
</svg>
