<svg width="718" height="490" viewBox="0 0 718 490" fill="none" xmlns="http://www.w3.org/2000/svg">
<path opacity="0.2" d="M333.262 0.98837C385.808 0.994505 438.474 6.15048 486.598 27.0638C534.905 48.0561 574.039 83.8259 610.852 121.624C613.494 124.336 616.149 127.049 618.809 129.767C654.972 166.714 691.992 204.537 707.192 253.532C723.706 306.758 715.914 364.377 703.041 418.721C690.433 471.942 665.71 520.9 633.372 565.04C600.809 609.486 564.295 653.472 514.322 676.353C464.991 698.94 408.233 699.673 354.312 692.825C329.269 689.645 306.09 680.861 283.305 670.436C274.434 666.377 265.612 662.063 256.762 657.736C242.914 650.966 229 644.162 214.729 638.251C202.725 633.279 190.085 629.355 177.35 625.665C173.891 624.663 170.426 623.678 166.965 622.694C157.673 620.054 148.407 617.42 139.356 614.476C114.517 606.395 91.4075 595.999 74.154 576.82C56.8721 557.609 48.3287 533.664 42.5773 508.171C39.8864 496.244 37.8093 483.991 35.7311 471.732C35.5884 470.891 35.4458 470.049 35.3029 469.208C33.0797 456.113 30.8075 443.038 27.7381 430.404C25.0235 419.23 21.9439 408.098 18.8696 396.985C18.5169 395.71 18.1642 394.435 17.8121 393.16C14.3909 380.773 11.0287 368.406 8.23191 356.006C2.6383 331.207 -0.687107 306.307 2.30275 280.943C8.45377 228.763 32.4537 180.554 62.2738 137.209C92.7391 92.9262 129.054 51.115 176.992 27.016C224.724 3.02013 279.703 0.982114 333.262 0.98837Z" stroke="black" stroke-width="0.979391"/>
</svg>
