<svg width="22" height="18" viewBox="0 0 22 18" fill="none" xmlns="http://www.w3.org/2000/svg">
<path d="M15.5048 17.0005H8.03556C7.9935 17.0005 7.95315 16.9838 7.92341 16.954C7.89366 16.9243 7.87695 16.8839 7.87695 16.8419C7.87695 16.7998 7.89366 16.7595 7.92341 16.7297C7.95315 16.7 7.9935 16.6833 8.03556 16.6833H15.5048C15.5468 16.6833 15.5872 16.7 15.6169 16.7297C15.6467 16.7595 15.6634 16.7998 15.6634 16.8419C15.6634 16.8839 15.6467 16.9243 15.6169 16.954C15.5872 16.9838 15.5468 17.0005 15.5048 17.0005Z" fill="black" stroke="black" stroke-width="0.27422"/>
<path d="M20.2549 14.319C19.9891 14.3206 19.7333 14.2181 19.5421 14.0335L16.8023 11.2905H7.28287C7.00476 11.2911 6.73765 11.1819 6.53962 10.9866L5.65427 10.1009C5.63912 10.0863 5.62704 10.0688 5.61872 10.0495C5.61041 10.0301 5.60604 10.0093 5.60585 9.98823C5.60567 9.96717 5.60968 9.94629 5.61766 9.9268C5.62563 9.9073 5.63741 9.88959 5.6523 9.8747C5.66719 9.85981 5.6849 9.84803 5.7044 9.84006C5.72389 9.83208 5.74477 9.82807 5.76583 9.82825C5.78689 9.82844 5.80771 9.83281 5.82706 9.84112C5.84641 9.84944 5.86391 9.86152 5.87854 9.87667L6.76295 10.7614C6.90165 10.8976 7.08844 10.9738 7.28287 10.9733H16.8689C16.9109 10.9734 16.9512 10.9902 16.9809 11.0199L19.7641 13.8057C19.9081 13.93 20.092 13.9983 20.2821 13.9983C20.4723 13.9983 20.6562 13.93 20.8002 13.8057C20.8686 13.7379 20.9228 13.6572 20.9599 13.5683C20.9969 13.4794 21.016 13.384 21.016 13.2877C21.016 13.1914 20.9969 13.096 20.9599 13.0071C20.9228 12.9182 20.8686 12.8375 20.8002 12.7697L17.7549 9.7244C17.6868 9.65596 17.6058 9.60171 17.5166 9.56479C17.4274 9.52787 17.3318 9.50902 17.2353 9.50933H7.64989C7.6079 9.50932 7.56764 9.49267 7.53791 9.46302L2.60073 4.52329C2.46299 4.38657 2.27678 4.30985 2.08271 4.30985C1.88863 4.30985 1.70243 4.38657 1.56469 4.52329C1.49631 4.59112 1.44203 4.67181 1.40499 4.76072C1.36795 4.84963 1.34888 4.94499 1.34888 5.04131C1.34888 5.13763 1.36795 5.23299 1.40499 5.3219C1.44203 5.41081 1.49631 5.4915 1.56469 5.55933L2.3441 6.33842C2.37299 6.36833 2.38898 6.4084 2.38861 6.44998C2.38825 6.49157 2.37157 6.53135 2.34216 6.56076C2.31276 6.59016 2.27298 6.60685 2.23139 6.60721C2.1898 6.60757 2.14974 6.59158 2.11982 6.56269L1.34042 5.78392C1.24244 5.68662 1.16469 5.5709 1.11163 5.44342C1.05857 5.31595 1.03125 5.17923 1.03125 5.04115C1.03125 4.90307 1.05857 4.76636 1.11163 4.63888C1.16469 4.51141 1.24244 4.39568 1.34042 4.29839C1.53778 4.1027 1.80446 3.9929 2.08239 3.9929C2.36032 3.9929 2.627 4.1027 2.82437 4.29839L7.71555 9.19243H17.2362C17.3745 9.19196 17.5114 9.21898 17.6391 9.27191C17.7668 9.32485 17.8827 9.40264 17.9801 9.50076L21.0254 12.5461C21.1234 12.6434 21.2011 12.7591 21.2542 12.8866C21.3072 13.014 21.3346 13.1507 21.3346 13.2888C21.3346 13.4269 21.3072 13.5636 21.2542 13.6911C21.2011 13.8186 21.1234 13.9343 21.0254 14.0316C20.8125 14.2187 20.5383 14.3209 20.2549 14.319Z" fill="black" stroke="black" stroke-width="0.27422"/>
<path d="M4.30364 8.68109C4.26177 8.681 4.22163 8.66435 4.19198 8.63478L3.58387 8.02953C3.56869 8.01494 3.55656 7.99747 3.5482 7.97814C3.53984 7.95882 3.53541 7.93802 3.53517 7.91696C3.53493 7.89591 3.53888 7.87501 3.5468 7.8555C3.55472 7.83599 3.56645 7.81825 3.58129 7.80332C3.59614 7.78839 3.61382 7.77656 3.63328 7.76853C3.65275 7.7605 3.67362 7.75643 3.69468 7.75655C3.71573 7.75667 3.73656 7.76098 3.75593 7.76924C3.7753 7.77749 3.79284 7.78952 3.80751 7.80462L4.41562 8.40987C4.43795 8.43202 4.45319 8.4603 4.45941 8.49113C4.46562 8.52196 4.46254 8.55394 4.45053 8.58301C4.43853 8.61208 4.41816 8.63693 4.392 8.65439C4.36585 8.67186 4.33509 8.68115 4.30364 8.68109Z" fill="black" stroke="black" stroke-width="0.27422"/>
<path d="M8.83048 9.50967C8.78842 9.50967 8.74808 9.49296 8.71833 9.46322C8.68859 9.43347 8.67188 9.39313 8.67188 9.35106V7.35259C8.67188 7.31052 8.68859 7.27018 8.71833 7.24043C8.74808 7.21069 8.78842 7.19398 8.83048 7.19398H12.6507C12.6928 7.19398 12.7332 7.21069 12.7629 7.24043C12.7926 7.27018 12.8094 7.31052 12.8094 7.35259C12.8094 7.39465 12.7926 7.435 12.7629 7.46474C12.7332 7.49449 12.6928 7.5112 12.6507 7.5112H8.98909V9.35106C8.98909 9.39313 8.97238 9.43347 8.94264 9.46322C8.91289 9.49296 8.87255 9.50967 8.83048 9.50967Z" fill="black" stroke="black" stroke-width="0.27422"/>
<path d="M13.4031 17.0004C13.3963 17.0004 13.3896 17.0004 13.3831 17.0004C13.3624 16.9978 13.3424 16.9912 13.3243 16.9809C13.3062 16.9706 13.2903 16.9568 13.2775 16.9403C13.2647 16.9239 13.2553 16.905 13.2498 16.8849C13.2443 16.8648 13.2428 16.8438 13.2454 16.8231L13.9639 11.1132C13.9656 11.0919 13.9716 11.0712 13.9816 11.0523C13.9915 11.0334 14.0051 11.0167 14.0217 11.0032C14.0382 10.9897 14.0573 10.9797 14.0778 10.9737C14.0983 10.9678 14.1198 10.966 14.141 10.9686C14.1622 10.9711 14.1827 10.978 14.2012 10.9886C14.2197 10.9993 14.2358 11.0136 14.2487 11.0306C14.2615 11.0477 14.2708 11.0672 14.2759 11.0879C14.2811 11.1086 14.282 11.1302 14.2786 11.1513L13.5617 16.8612C13.5569 16.8998 13.5381 16.9353 13.5089 16.961C13.4796 16.9867 13.442 17.0007 13.4031 17.0004Z" fill="black" stroke="black" stroke-width="0.27422"/>
<path d="M10.1365 17.0005C10.0979 17.0004 10.0606 16.9862 10.0317 16.9605C10.0028 16.9349 9.98422 16.8996 9.97951 16.8612L9.26101 11.1513C9.25575 11.1095 9.2673 11.0673 9.29312 11.0341C9.31894 11.0008 9.35691 10.9792 9.39868 10.9739C9.44045 10.9687 9.4826 10.9802 9.51586 11.0061C9.54911 11.0319 9.57075 11.0698 9.57601 11.1116L10.2942 16.8215C10.2995 16.8633 10.288 16.9054 10.2622 16.9387C10.2365 16.9719 10.1986 16.9936 10.1568 16.9989C10.1499 17.0001 10.1435 17.0005 10.1365 17.0005Z" fill="black" stroke="black" stroke-width="0.27422"/>
<path d="M19.9975 11.9018C19.9555 11.9018 19.9151 11.8851 19.8854 11.8553C19.8556 11.8256 19.8389 11.7853 19.8389 11.7432V3.3239C19.8381 2.58683 19.5449 1.88019 19.0237 1.359C18.5025 0.837815 17.7959 0.544643 17.0588 0.543804C16.5909 0.543804 15.388 0.815977 14.863 1.62488C14.8518 1.64263 14.8372 1.65797 14.82 1.67003C14.8028 1.68208 14.7834 1.69061 14.7629 1.69511C14.7424 1.69961 14.7212 1.7 14.7006 1.69625C14.6799 1.6925 14.6602 1.68469 14.6426 1.67327C14.625 1.66186 14.6099 1.64706 14.598 1.62973C14.5862 1.61241 14.5779 1.5929 14.5736 1.57235C14.5694 1.5518 14.5692 1.53061 14.5732 1.51C14.5772 1.4894 14.5853 1.46979 14.5969 1.45232C15.198 0.526039 16.5151 0.226585 17.0588 0.226585C17.88 0.227509 18.6673 0.554129 19.2479 1.13479C19.8286 1.71545 20.1552 2.50273 20.1561 3.3239V11.7432C20.1561 11.7853 20.1394 11.8256 20.1097 11.8553C20.0799 11.8851 20.0396 11.9018 19.9975 11.9018Z" fill="black" stroke="black" stroke-width="0.27422"/>
<path d="M14.7323 3.99926C14.7114 3.9993 14.6908 3.99523 14.6715 3.98728C14.6522 3.97934 14.6347 3.96767 14.62 3.95295L12.3179 1.6509C12.2882 1.62115 12.2715 1.58082 12.2715 1.53876C12.2715 1.4967 12.2882 1.45637 12.3179 1.42662C12.6529 1.09161 13.1073 0.903404 13.5811 0.903404C14.0549 0.903404 14.5092 1.09161 14.8442 1.42662C15.1793 1.76163 15.3675 2.21601 15.3675 2.68979C15.3675 3.16356 15.1793 3.61794 14.8442 3.95295C14.8145 3.9826 14.7743 3.99925 14.7323 3.99926ZM12.6602 1.54463L14.7262 3.61035C14.9533 3.32805 15.0681 2.97182 15.0485 2.61006C15.0289 2.24831 14.8764 1.90653 14.6202 1.65038C14.364 1.39423 14.0222 1.24175 13.6604 1.22223C13.2987 1.20271 12.9425 1.31753 12.6602 1.54463Z" fill="black" stroke="black" stroke-width="0.27422"/>
</svg>
