<svg width="14" height="21" viewBox="0 0 14 21" fill="none" xmlns="http://www.w3.org/2000/svg">
<path d="M13.5066 11.7177C13.466 11.7177 13.427 11.7016 13.3983 11.6729C13.3696 11.6442 13.3535 11.6053 13.3535 11.5647V10.7213C13.3535 10.6807 13.3696 10.6418 13.3983 10.6131C13.427 10.5844 13.466 10.5683 13.5066 10.5683C13.5472 10.5683 13.5861 10.5844 13.6148 10.6131C13.6435 10.6418 13.6596 10.6807 13.6596 10.7213V11.5647C13.6596 11.6053 13.6435 11.6442 13.6148 11.6729C13.5861 11.7016 13.5472 11.7177 13.5066 11.7177Z" fill="black" stroke="black" stroke-width="0.27422"/>
<path d="M13.505 20.0744H1.0261C0.98551 20.0744 0.946579 20.0583 0.917876 20.0296C0.889172 20.0009 0.873047 19.962 0.873047 19.9214V3.1918C0.873047 3.1512 0.889172 3.11227 0.917876 3.08357C0.946579 3.05487 0.98551 3.03874 1.0261 3.03874H3.86253C3.90312 3.03874 3.94205 3.05487 3.97075 3.08357C3.99946 3.11227 4.01558 3.1512 4.01558 3.1918C4.01558 3.23239 3.99946 3.27132 3.97075 3.30002C3.94205 3.32873 3.90312 3.34485 3.86253 3.34485H1.17916V19.7683H13.352V16.3595C13.352 16.3189 13.3681 16.2799 13.3968 16.2512C13.4255 16.2225 13.4644 16.2064 13.505 16.2064C13.5456 16.2064 13.5845 16.2225 13.6132 16.2512C13.642 16.2799 13.6581 16.3189 13.6581 16.3595V19.9214C13.6581 19.962 13.642 20.0009 13.6132 20.0296C13.5845 20.0583 13.5456 20.0744 13.505 20.0744Z" fill="black" stroke="black" stroke-width="0.27422"/>
<path d="M13.5066 14.527C13.466 14.527 13.427 14.5109 13.3983 14.4822C13.3696 14.4535 13.3535 14.4146 13.3535 14.374V13.5475C13.3535 13.5069 13.3696 13.468 13.3983 13.4393C13.427 13.4106 13.466 13.3944 13.5066 13.3944C13.5472 13.3944 13.5861 13.4106 13.6148 13.4393C13.6435 13.468 13.6596 13.5069 13.6596 13.5475V14.374C13.6596 14.4146 13.6435 14.4535 13.6148 14.4822C13.5861 14.5109 13.5472 14.527 13.5066 14.527Z" fill="black" stroke="black" stroke-width="0.27422"/>
<path d="M13.5051 8.88912C13.4645 8.88912 13.4256 8.87299 13.3969 8.84429C13.3682 8.81559 13.352 8.77666 13.352 8.73606V3.34484H10.6687C10.6281 3.34484 10.5892 3.32871 10.5605 3.30001C10.5318 3.27131 10.5156 3.23238 10.5156 3.19178C10.5156 3.15119 10.5318 3.11226 10.5605 3.08356C10.5892 3.05485 10.6281 3.03873 10.6687 3.03873H13.5051C13.5457 3.03873 13.5846 3.05485 13.6133 3.08356C13.642 3.11226 13.6582 3.15119 13.6582 3.19178V8.73606C13.6582 8.77666 13.642 8.81559 13.6133 8.84429C13.5846 8.87299 13.5457 8.88912 13.5051 8.88912Z" fill="black" stroke="black" stroke-width="0.27422"/>
<path d="M10.6681 4.1928H3.86204C3.82145 4.1928 3.78252 4.17667 3.75381 4.14797C3.72511 4.11926 3.70898 4.08033 3.70898 4.03974V2.33807C3.70898 2.29748 3.72511 2.25855 3.75381 2.22984C3.78252 2.20114 3.82145 2.18501 3.86204 2.18501H5.62126C5.65478 1.76404 5.83985 1.3695 6.14213 1.07459C6.44441 0.779684 6.8434 0.604416 7.26508 0.581299C7.68675 0.604416 8.08574 0.779684 8.38802 1.07459C8.6903 1.3695 8.87537 1.76404 8.90889 2.18501H10.6681C10.7087 2.18501 10.7476 2.20114 10.7763 2.22984C10.805 2.25855 10.8212 2.29748 10.8212 2.33807V4.03974C10.8212 4.08033 10.805 4.11926 10.7763 4.14797C10.7476 4.17667 10.7087 4.1928 10.6681 4.1928ZM4.0151 3.88668H10.5151V2.49112H8.76288C8.72228 2.49112 8.68335 2.475 8.65465 2.4463C8.62595 2.41759 8.60982 2.37866 8.60982 2.33807C8.61366 1.97018 8.47641 1.6148 8.2263 1.34498C7.97618 1.07517 7.6322 0.911421 7.26508 0.88741C6.89795 0.911421 6.55397 1.07517 6.30386 1.34498C6.05374 1.6148 5.91649 1.97018 5.92033 2.33807C5.92033 2.37866 5.9042 2.41759 5.8755 2.4463C5.8468 2.475 5.80787 2.49112 5.76727 2.49112H4.0151V3.88668Z" fill="black" stroke="black" stroke-width="0.27422"/>
<path d="M7.26512 2.60925C7.14779 2.60925 7.03309 2.57445 6.93553 2.50927C6.83797 2.44408 6.76193 2.35143 6.71703 2.24303C6.67213 2.13463 6.66038 2.01535 6.68327 1.90027C6.70616 1.78519 6.76267 1.67948 6.84563 1.59652C6.9286 1.51355 7.0343 1.45705 7.14938 1.43416C7.26446 1.41127 7.38374 1.42302 7.49214 1.46792C7.60054 1.51282 7.6932 1.58886 7.75838 1.68642C7.82357 1.78397 7.85836 1.89867 7.85836 2.016C7.8582 2.17329 7.79564 2.32409 7.68443 2.43531C7.57321 2.54653 7.42241 2.60908 7.26512 2.60925ZM7.26512 1.72887C7.20833 1.72887 7.15281 1.74571 7.1056 1.77726C7.05838 1.80881 7.02157 1.85366 6.99984 1.90612C6.97811 1.95859 6.97242 2.01632 6.9835 2.07202C6.99458 2.12772 7.02193 2.17888 7.06209 2.21904C7.10224 2.25919 7.1534 2.28654 7.2091 2.29762C7.2648 2.3087 7.32253 2.30301 7.375 2.28128C7.42746 2.25955 7.47231 2.22274 7.50386 2.17553C7.53541 2.12831 7.55225 2.07279 7.55225 2.016C7.55217 1.93988 7.52189 1.86689 7.46806 1.81306C7.41423 1.75923 7.34125 1.72895 7.26512 1.72887Z" fill="black" stroke="black" stroke-width="0.27422"/>
<path d="M11.7212 6.44088H2.81126C2.77067 6.44088 2.73174 6.42475 2.70303 6.39605C2.67433 6.36734 2.6582 6.32841 2.6582 6.28782C2.6582 6.24723 2.67433 6.2083 2.70303 6.17959C2.73174 6.15089 2.77067 6.13477 2.81126 6.13477H11.7212C11.7618 6.13477 11.8008 6.15089 11.8295 6.17959C11.8582 6.2083 11.8743 6.24723 11.8743 6.28782C11.8743 6.32841 11.8582 6.36734 11.8295 6.39605C11.8008 6.42475 11.7618 6.44088 11.7212 6.44088Z" fill="black" stroke="black" stroke-width="0.27422"/>
<path d="M11.7212 8.5114H2.81126C2.77067 8.5114 2.73174 8.49528 2.70303 8.46657C2.67433 8.43787 2.6582 8.39894 2.6582 8.35835C2.6582 8.31775 2.67433 8.27882 2.70303 8.25012C2.73174 8.22142 2.77067 8.20529 2.81126 8.20529H11.7212C11.7618 8.20529 11.8008 8.22142 11.8295 8.25012C11.8582 8.27882 11.8743 8.31775 11.8743 8.35835C11.8743 8.39894 11.8582 8.43787 11.8295 8.46657C11.8008 8.49528 11.7618 8.5114 11.7212 8.5114Z" fill="black" stroke="black" stroke-width="0.27422"/>
<path d="M5.93946 17.8224C5.86229 17.8227 5.78646 17.8022 5.71998 17.763C4.97154 17.3161 4.86715 15.8112 4.87144 14.9538C4.86379 14.9134 4.7692 14.6422 4.67767 14.3802C4.41533 13.629 4.01953 12.4942 4.01953 12.0075C4.01953 10.6481 4.94858 10.4084 5.50203 10.387C5.96245 10.3802 6.41581 10.5006 6.81218 10.735C6.95186 10.8091 7.10757 10.8479 7.26569 10.8479C7.4238 10.8479 7.57951 10.8091 7.71919 10.735C8.11426 10.4991 8.56744 10.3785 9.02751 10.3867C9.58187 10.4081 10.5115 10.6478 10.5115 12.009C10.5115 12.384 10.2097 13.306 9.8739 14.2988C9.77442 14.5923 9.67156 14.8957 9.65963 14.9624C9.6633 15.8213 9.55708 17.3195 8.812 17.763C8.72524 17.8079 8.62718 17.8263 8.53005 17.8157C8.43293 17.8052 8.34105 17.7663 8.2659 17.7039C8.11866 17.6041 8.0403 17.306 7.89122 16.6962C7.76021 16.1602 7.51624 15.1626 7.26155 15.1556C7.02462 15.1623 6.79626 16.1045 6.67351 16.612C6.52658 17.2184 6.43567 17.5683 6.27557 17.6966C6.1811 17.7755 6.06254 17.8199 5.93946 17.8224ZM5.57947 10.6915C5.55743 10.6915 5.5357 10.6915 5.51366 10.6915C4.72542 10.7221 4.32564 11.1648 4.32564 12.0078C4.32564 12.4428 4.72695 13.5926 4.96664 14.2795C5.06006 14.4968 5.13074 14.7232 5.17755 14.9551C5.1751 15.4531 5.21826 17.107 5.87609 17.5001C5.91112 17.5139 5.94944 17.5173 5.98636 17.5098C6.02328 17.5022 6.05719 17.484 6.08394 17.4575C6.22425 17.1668 6.32248 16.8576 6.37567 16.5392C6.57525 15.7148 6.78188 14.8623 7.26125 14.8488C7.75776 14.8626 7.97663 15.7574 8.18846 16.6227C8.24092 16.9089 8.3265 17.188 8.44345 17.4545C8.501 17.493 8.59038 17.5368 8.65773 17.4988C9.31433 17.107 9.35719 15.4531 9.35474 14.9554C9.40815 14.6973 9.48532 14.4447 9.58524 14.2008C9.81789 13.5139 10.207 12.3641 10.207 12.009C10.207 11.1669 9.80656 10.7234 9.01741 10.6928C8.61433 10.6853 8.2174 10.7922 7.87255 11.001C7.68665 11.1015 7.47867 11.1541 7.26737 11.1541C7.05607 11.1541 6.84809 11.1015 6.66219 11.001C6.33441 10.8053 5.96118 10.6986 5.57947 10.6915Z" fill="black" stroke="black" stroke-width="0.27422"/>
</svg>
