<svg width="14" height="20" viewBox="0 0 14 20" fill="none" xmlns="http://www.w3.org/2000/svg">
<path d="M11.7827 12.3039C11.6856 12.5579 11.5878 12.797 11.4892 13.0149L11.4892 13.015C11.4588 13.0824 11.4563 13.1592 11.4824 13.2284C11.5084 13.2974 11.5607 13.3533 11.6278 13.384C11.6642 13.4007 11.7038 13.4093 11.7438 13.4092L11.7827 12.3039Z" fill="black" stroke="black" stroke-width="0.27422"/>
<path d="M9.14972 19.1845L9.15005 19.1842C9.0467 19.0575 8.95397 18.84 8.86289 18.5823C8.76982 18.3189 8.6714 17.9917 8.56287 17.6309C8.38045 17.0255 8.15416 16.2751 7.89888 15.6737C7.771 15.3725 7.639 15.1164 7.50599 14.9366C7.36999 14.7528 7.25768 14.6821 7.17404 14.6771C7.09257 14.682 6.98279 14.7507 6.84954 14.9305C6.71918 15.1065 6.58986 15.3571 6.46459 15.6522C6.21506 16.2399 5.99411 16.973 5.81558 17.5655C5.68615 18.113 5.49125 18.6429 5.23507 19.1438L5.22678 19.16L5.21455 19.1735C5.08586 19.3154 4.91244 19.4089 4.72319 19.4384C4.53393 19.468 4.34026 19.4318 4.17444 19.3359L4.17298 19.3351C3.8107 19.1196 3.5386 18.7652 3.33319 18.3497C3.12746 17.9335 2.98395 17.4465 2.88371 16.9521C2.68325 15.9633 2.65187 14.9245 2.65458 14.3153M9.14972 19.1845L2.19272 8.34766C2.20231 8.2742 2.18235 8.19995 2.13721 8.14121C2.09205 8.08245 2.0254 8.04403 1.95192 8.03441C1.87844 8.02479 1.80415 8.04476 1.74539 8.08991C1.68664 8.13506 1.64823 8.20169 1.6386 8.27515L1.77453 8.29299L1.6386 8.2752C1.50627 9.28362 1.66072 10.4713 1.87041 11.4538C2.07989 12.4353 2.34898 13.232 2.45774 13.4618L2.45773 13.4618L2.45844 13.4632C2.58788 13.7286 2.65497 14.02 2.65458 14.3153M9.14972 19.1845L9.15729 19.1924M9.14972 19.1845L9.15729 19.1924M2.65458 14.3153C2.65458 14.3152 2.65458 14.3151 2.65458 14.3151L2.79169 14.3157L2.65458 14.3155C2.65458 14.3154 2.65458 14.3153 2.65458 14.3153ZM9.15729 19.1924C9.23589 19.2744 9.33028 19.3397 9.43478 19.3843C9.53916 19.4288 9.65147 19.4518 9.76495 19.4518M9.15729 19.1924L3.21356 14.3188M3.21356 14.3188L3.21356 14.3191C3.21102 14.8965 3.23941 15.8718 3.41596 16.7885C3.50423 17.2469 3.6286 17.6855 3.80162 18.0505C3.97499 18.4162 4.19189 18.6969 4.45912 18.8562C4.51261 18.8871 4.57492 18.899 4.63603 18.8902C4.69081 18.8822 4.74175 18.8579 4.78233 18.8207C4.99292 18.3698 5.15903 17.8995 5.27829 17.4164L5.27996 17.4096L5.28013 17.4097L5.28186 17.4039C5.50418 16.6662 5.74509 15.8668 6.03298 15.2484C6.17728 14.9384 6.33729 14.6651 6.51892 14.4657C6.70074 14.2662 6.9162 14.1282 7.16903 14.1201L7.17775 14.1198L7.17774 14.1201C7.4338 14.1282 7.65212 14.2684 7.83653 14.4714C8.02078 14.6743 8.1833 14.9526 8.33003 15.2684C8.62184 15.8964 8.86665 16.7078 9.09289 17.4577L9.09683 17.4707L9.09912 17.4783L9.0989 17.4784C9.21045 17.944 9.37205 18.3962 9.58085 18.8271C9.62122 18.862 9.67108 18.8845 9.72432 18.8914C9.78419 18.8993 9.84496 18.887 9.89714 18.8567C10.2489 18.6474 10.5486 18.2005 10.7688 17.4894L10.769 17.4888C10.78 17.4538 10.7978 17.4214 10.8213 17.3932C10.8449 17.3651 10.8737 17.3419 10.9062 17.3249C10.9388 17.3079 10.9743 17.2975 11.0109 17.2943C11.0474 17.2911 11.0842 17.2951 11.1192 17.3061C11.1542 17.317 11.1867 17.3348 11.2148 17.3584C11.243 17.3819 11.2662 17.4108 11.2832 17.4433C11.3001 17.4758 11.3105 17.5114 11.3138 17.5479C11.317 17.5844 11.313 17.6211 11.3021 17.656M3.21356 14.3188C3.21437 13.9393 3.12861 13.5645 2.9628 13.2231M3.21356 14.3188L2.9628 13.2231M11.3021 17.656C11.0519 18.4642 10.6814 19.0417 10.1829 19.3376C10.0565 19.4129 9.91204 19.4524 9.76495 19.4518M11.3021 17.656C11.3021 17.6561 11.302 17.6562 11.302 17.6563L11.1713 17.6152L11.3022 17.6557C11.3022 17.6558 11.3021 17.6559 11.3021 17.656ZM9.76495 19.4518C9.76486 19.4518 9.76478 19.4518 9.7647 19.4518L9.76529 19.3148L9.76534 19.4518C9.76521 19.4518 9.76508 19.4518 9.76495 19.4518ZM2.9628 13.2231C2.87017 13.0264 2.61534 12.2783 2.41451 11.3368C2.21365 10.3952 2.07125 9.27985 2.19271 8.34774L2.9628 13.2231Z" fill="black" stroke="black" stroke-width="0.27422"/>
<path d="M11.3386 16.0232L11.3386 16.0233L11.4197 14.8133C11.4008 14.8119 11.3819 14.8144 11.3641 14.8207C11.3463 14.8269 11.3299 14.8368 11.3161 14.8497C11.3023 14.8626 11.2913 14.8783 11.2839 14.8956C11.2764 14.913 11.2726 14.9317 11.2727 14.9506L11.1357 14.9461C11.1357 14.9469 11.1357 14.9476 11.1356 14.9483C11.1272 15.2064 11.1109 15.4668 11.0868 15.7188L11.0868 15.7189C11.0833 15.7554 11.0871 15.7923 11.0979 15.8273C11.1087 15.8624 11.1263 15.895 11.1496 15.9233C11.173 15.9515 11.2018 15.9749 11.2342 15.992C11.2666 16.0092 11.3021 16.0198 11.3386 16.0232ZM11.6188 14.7645C11.5688 14.7112 11.5 14.6796 11.4271 14.6764L11.3653 16.0238C11.3667 16.0238 11.3681 16.0238 11.3695 16.0238C11.4372 16.0227 11.5023 15.997 11.5526 15.9514C11.6039 15.9048 11.636 15.8409 11.6428 15.772L11.6428 15.772L11.6429 15.7714C11.6678 15.506 11.6851 15.2344 11.694 14.9645L11.694 14.9644C11.6964 14.8905 11.6693 14.8186 11.6188 14.7645Z" fill="black" stroke="black" stroke-width="0.27422"/>
<path d="M12.4576 10.8892L12.4577 10.8885C12.4212 10.8848 12.3858 10.874 12.3535 10.8566C12.3213 10.8392 12.2927 10.8156 12.2695 10.7872C12.2463 10.7588 12.229 10.7261 12.2184 10.691L12.4576 10.8892ZM12.4576 10.8892H12.4715M12.4576 10.8892H12.4715M12.4715 10.8892H12.486V10.7521L12.4864 10.8892C12.5553 10.889 12.6217 10.8634 12.6728 10.8172C12.724 10.771 12.7562 10.7076 12.7634 10.639L12.7634 10.6387C12.7672 10.6012 12.7697 10.4675 12.771 10.2919C12.7723 10.1114 12.7723 9.87622 12.77 9.62712C12.7654 9.13167 12.7518 8.57232 12.7207 8.28312C12.7128 8.20946 12.6759 8.14197 12.6182 8.09549C12.5606 8.04901 12.4868 8.02735 12.4131 8.03527C12.3395 8.04319 12.272 8.08004 12.2255 8.13773C12.179 8.19541 12.1574 8.26919 12.1653 8.34284L12.1653 8.34288M12.4715 10.8892L12.1653 8.34288M12.1653 8.34288C12.1944 8.61299 12.2071 9.15169 12.2113 9.64004C12.2134 9.88278 12.2134 10.1108 12.2124 10.2834C12.2119 10.3697 12.2111 10.4419 12.2102 10.495C12.2098 10.5216 12.2094 10.5431 12.2089 10.559L12.2082 10.578C12.2081 10.5818 12.208 10.5837 12.2079 10.5841L12.1653 8.34288Z" fill="black" stroke="black" stroke-width="0.27422"/>
<path d="M6.95406 1.10283L6.95422 1.10295C6.98085 1.0686 7.01499 1.04079 7.05401 1.02166C7.09304 1.00254 7.13593 0.99259 7.1794 0.99259C7.22286 0.99259 7.26575 1.00254 7.30478 1.02166C7.34381 1.04079 7.37794 1.0686 7.40457 1.10295L7.4091 1.10879L7.40893 1.1089L9.90357 4.71221L13.2043 2.7868C13.2043 2.78679 13.2043 2.78678 13.2043 2.78677C13.2502 2.75999 13.3028 2.74685 13.3558 2.7489C13.4089 2.75095 13.4604 2.76812 13.504 2.79837C13.5477 2.82863 13.5819 2.87073 13.6025 2.91972C13.6231 2.96871 13.6292 3.02256 13.6203 3.07494L12.7177 8.3595L12.7177 8.35955L12.5825 8.33647C12.5769 8.36954 12.5597 8.39956 12.5341 8.4212C12.5084 8.44283 12.476 8.4547 12.4424 8.45469L6.95406 1.10283ZM6.95406 1.10283L6.94983 1.10895L4.4566 4.71332L1.15595 2.78794C1.15593 2.78792 1.15591 2.78791 1.15589 2.7879C1.11001 2.76113 1.05745 2.74799 1.00437 2.75004C0.951269 2.75209 0.899855 2.76925 0.856169 2.79951C0.812483 2.82977 0.778338 2.87187 0.757748 2.92086C0.737163 2.96983 0.730979 3.02367 0.73992 3.07603C0.739922 3.07605 0.739925 3.07606 0.739928 3.07608L1.6411 8.3595L6.95406 1.10283ZM1.9164 8.5918H12.4424L1.64111 8.35952C1.65218 8.4245 1.6859 8.48347 1.73628 8.52598C1.78666 8.5685 1.85045 8.59181 1.91637 8.5918C1.91638 8.5918 1.91639 8.5918 1.9164 8.5918ZM4.76704 5.2426L7.17942 1.75831L9.59262 5.24262L9.59264 5.24266C9.63269 5.30044 9.69305 5.34098 9.76168 5.3562C9.8303 5.37141 9.90213 5.36019 9.96284 5.32477C9.96285 5.32476 9.96286 5.32475 9.96287 5.32475L12.9687 3.57143L12.2076 8.03339H2.15201L1.39097 3.57143L4.39678 5.32475C4.39679 5.32475 4.3968 5.32476 4.39681 5.32477C4.45752 5.36019 4.52935 5.37141 4.59796 5.3562C4.6666 5.34098 4.72696 5.30044 4.76701 5.24266L4.76704 5.2426Z" fill="black" stroke="black" stroke-width="0.27422"/>
</svg>
